<svg id="Logo" xmlns="http://www.w3.org/2000/svg" viewBox="0 0 226.77 85.04"><defs><style>.cls-1{fill:#fff;}</style></defs><title>HBT_Logo_RGB_negativ</title><path class="cls-1" d="M136.73,108.23h30a12.56,12.56,0,1,0,0-25.12h-30Zm30-3.86H150.25V96.64h25.07A8.71,8.71,0,0,1,166.68,104.37Zm8.7-8.68v0Zm-.5-2.92H146.39v11.6h-5.8V87h26.09A8.71,8.71,0,0,1,174.88,92.77Z" transform="translate(-42.52 -42.52)"/><path class="cls-1" d="M164.75,77.31a12.57,12.57,0,0,0,0-25.13h-28V77.31Zm0-3.87h-14.5V65.71h23.14A8.71,8.71,0,0,1,164.75,73.44ZM173,61.85H146.39V73.44h-5.8V56.05h24.16A8.71,8.71,0,0,1,173,61.85Z" transform="translate(-42.52 -42.52)"/><path class="cls-1" d="M166.68,123.69H130.93V46.39h33.82A18.35,18.35,0,0,1,177.46,78l-1.65,1.58,1.83,1.37A18.18,18.18,0,0,1,185,95.67,18.38,18.38,0,0,1,166.68,114h-30v3.87h30a22.2,22.2,0,0,0,20.59-30.58,32,32,0,0,0,5.25-6.9l-3.36-1.9a28,28,0,0,1-3.77,5.17,22.36,22.36,0,0,0-3.77-4.48A22,22,0,0,0,187,64.75a22.25,22.25,0,0,0-22.23-22.23H127.06v85h39.62a32,32,0,0,0,27.78-16.21l-3.37-1.9A28.1,28.1,0,0,1,166.68,123.69Z" transform="translate(-42.52 -42.52)"/><rect class="cls-1" width="3.87" height="85.04"/><polygon class="cls-1" points="48.32 32.86 23.19 32.86 23.19 0 19.33 0 19.33 32.86 13.53 32.86 13.53 0 9.66 0 9.66 36.72 52.18 36.72 52.18 0 48.32 0 48.32 32.86"/><rect class="cls-1" x="57.98" width="3.87" height="85.04"/><rect class="cls-1" x="67.64" width="3.87" height="85.04"/><polygon class="cls-1" points="9.66 42.52 9.66 85.04 13.53 85.04 13.53 46.38 52.18 46.38 52.18 42.52 9.66 42.52"/><polygon class="cls-1" points="19.33 52.18 19.33 85.04 23.19 85.04 23.19 56.05 48.32 56.05 48.32 85.04 52.18 85.04 52.18 52.18 19.33 52.18"/><rect class="cls-1" x="155.26" width="71.51" height="3.87"/><polygon class="cls-1" points="189.08 9.66 189.08 85.04 192.95 85.04 192.95 13.53 226.77 13.53 226.77 9.66 189.08 9.66"/><polygon class="cls-1" points="198.75 85.04 202.61 85.04 202.61 23.19 226.77 23.19 226.77 19.33 198.75 19.33 198.75 85.04"/><polygon class="cls-1" points="155.26 13.53 179.42 13.53 179.42 19.33 155.26 19.33 155.26 23.19 179.42 23.19 179.42 85.04 183.29 85.04 183.29 9.66 155.26 9.66 155.26 13.53"/></svg>