<svg id="Logo" xmlns="http://www.w3.org/2000/svg" viewBox="0 0 226.77 21.47"><defs><style>.cls-1{fill:#46e6e6;}</style></defs><title>HBT_Claim_RGB_positiv</title><path class="cls-1" d="M266.77,127.26h2.52v-2.54h-2.52Zm-4.37-11.13c-.27-3.3-2.75-4.9-5.63-4.9s-5.39,1.45-5.39,4.26c0,2.45,1.55,3.69,3.71,4.18l3.48.78c1.85.4,2.63,1.48,2.63,2.94,0,1.78-1.82,2.63-3.89,2.63s-4.35-1-4.64-3.63h-1.62c.27,3.69,3.11,5.17,6.23,5.17s5.51-1.45,5.51-4.14-1.29-4-4.19-4.63l-3-.67c-1.89-.42-2.67-1.21-2.67-2.63,0-1.93,1.89-2.72,3.78-2.72a3.74,3.74,0,0,1,4,3.36Zm-13.93,0c-.27-3.3-2.75-4.9-5.63-4.9s-5.39,1.45-5.39,4.26c0,2.45,1.55,3.69,3.71,4.18l3.48.78c1.85.4,2.63,1.48,2.63,2.94,0,1.78-1.82,2.63-3.89,2.63s-4.35-1-4.64-3.63h-1.62c.27,3.69,3.11,5.17,6.23,5.17s5.51-1.45,5.51-4.14-1.29-4-4.19-4.63l-3-.67c-1.89-.42-2.67-1.21-2.67-2.63,0-1.93,1.89-2.72,3.78-2.72a3.74,3.74,0,0,1,4,3.36ZM224,117.34a4.35,4.35,0,1,1,8.68,0v.72H224Zm0,2.27h10.27v-2.27c0-4.54-3.14-6.11-5.93-6.11s-5.93,1.57-5.93,6.11v4.11c0,4.54,3.14,6.11,5.93,6.11a5.53,5.53,0,0,0,5.87-5.14h-1.62a4.1,4.1,0,0,1-4.25,3.6,4.22,4.22,0,0,1-4.34-4.57Zm-15.73-2.27a4.35,4.35,0,1,1,8.69,0v9.92h1.58v-9.92c0-4.54-3.14-6.11-5.93-6.11a5.1,5.1,0,0,0-4.34,2.21v-1.79h-1.59v15.61h1.59Zm-6.08-11.25H200.6v2.63h1.59Zm-1.59,21.17h1.59V111.65H200.6Zm-3.92-11.13c-.27-3.3-2.76-4.9-5.64-4.9s-5.39,1.45-5.39,4.26c0,2.45,1.56,3.69,3.72,4.18l3.47.78c1.86.4,2.64,1.48,2.64,2.94,0,1.78-1.83,2.63-3.9,2.63s-4.34-1-4.64-3.63h-1.62c.27,3.69,3.12,5.17,6.23,5.17,3.27,0,5.52-1.45,5.52-4.14s-1.29-4-4.2-4.63l-3-.67c-1.89-.42-2.67-1.21-2.67-2.63,0-1.93,1.89-2.72,3.77-2.72a3.75,3.75,0,0,1,4.05,3.36Zm-16.36,5.32a4.25,4.25,0,1,1-8.48,0v-9.8h-1.59v9.8c0,4.54,3.18,6.11,5.85,6.11a5.14,5.14,0,0,0,4.22-2.21v1.91h1.59V111.65h-1.59Zm-25.1-5.72v-8h5.33a4,4,0,1,1,0,8Zm5.87,1.61a4.14,4.14,0,0,1,0,8.28h-5.87v-8.28Zm2.48-.94a5.11,5.11,0,0,0,2.73-4.66,5.46,5.46,0,0,0-5.75-5.65h-7v21.17h7.52a5.48,5.48,0,0,0,5.72-5.78,5.37,5.37,0,0,0-3.24-5.08m-31.3.94a4.35,4.35,0,1,1,8.69,0v9.92h1.58v-9.92c0-4.54-3.14-6.11-5.93-6.11a5.1,5.1,0,0,0-4.34,2.21v-1.79h-1.59v15.61h1.59Zm-15.79,0a4.35,4.35,0,1,1,8.69,0v.72h-8.69Zm0,2.27h10.28v-2.27c0-4.54-3.15-6.11-5.93-6.11s-5.94,1.57-5.94,6.11v4.11c0,4.54,3.15,6.11,5.94,6.11a5.54,5.54,0,0,0,5.87-5.14h-1.62a4.1,4.1,0,0,1-4.25,3.6,4.23,4.23,0,0,1-4.35-4.57Zm-10,5.56-4.74-13.52h-1.7l5.57,15.61h1.74L113,111.65h-1.71Zm-8.87-19.08H96.05v2.63h1.59Zm-1.59,21.17h1.59V111.65H96.05ZM93.3,112.92v-1.54h-.45a5.11,5.11,0,0,0-4.35,2.21v-1.94H86.91v15.61H88.5v-9.77a4.23,4.23,0,0,1,4.35-4.57Zm-22-5.2h5c2.73,0,5,1.78,5,5.53v6.84c0,3.75-2.24,5.53-5,5.53h-5Zm11.59,5.53c0-4.44-2.81-7.16-6.62-7.16H69.66v21.17h6.62c3.81,0,6.62-2.72,6.62-7.17Zm-28.46-5.53h5.81v-1.63H47v1.63h5.81v19.54h1.65Zm-10.27-1.63H42.52v21.17h1.65Z" transform="translate(-42.52 -106.09)"/></svg>